<svg xmlns="http://www.w3.org/2000/svg" width="16" height="16" viewBox="0 0 16 16">
    <g data-name="그룹 1231">
        <path data-name="패스 2993" d="M628 3829.33a5.33 5.33 0 1 0-5.333-5.33 5.327 5.327 0 0 0 5.333 5.33zm0 1.34a6.67 6.67 0 1 0-6.667-6.67 6.671 6.671 0 0 0 6.667 6.67z" transform="translate(-620 -3816)" style="fill-rule:evenodd;fill:#697278"/>
        <path data-name="패스 2994" d="M627.534 3826.87v-3.34a.667.667 0 0 1 1.333 0v3.34a.667.667 0 0 1-1.333 0z" transform="translate(-620 -3816)" style="fill-rule:evenodd;fill:#697278"/>
        <path data-name="패스 2995" d="M628.867 3821.2a.667.667 0 1 1-.666-.67.668.668 0 0 1 .666.67z" transform="translate(-620 -3816)" style="fill:#697278"/>
    </g>
</svg>
