<svg xmlns="http://www.w3.org/2000/svg" width="24" height="24" viewBox="0 0 24 24">
    <g data-name="그룹 807">
        <path data-name="패스 1966" d="M1609 2573a8 8 0 1 0-8-8 8 8 0 0 0 8 8zm0 2a10 10 0 1 0-10-10 10 10 0 0 0 10 10z" style="fill-rule:evenodd;fill:#697278" transform="translate(-1597 -2553)"/>
        <path data-name="패스 1967" d="M1608.3 2569.3v-5a1 1 0 0 1 2 0v5a1 1 0 0 1-2 0z" style="fill-rule:evenodd;fill:#697278" transform="translate(-1597 -2553)"/>
        <path data-name="패스 1968" d="M1610.3 2560.8a1 1 0 1 1-1-1 1 1 0 0 1 1 1z" style="fill:#697278" transform="translate(-1597 -2553)"/>
    </g>
</svg>
